<?xml version="1.0" encoding="UTF-8"?>
<svg width="11px" height="11px" viewBox="0 0 11 11" version="1.1" xmlns="http://www.w3.org/2000/svg" xmlns:xlink="http://www.w3.org/1999/xlink">
    <!-- Generator: Sketch 50 (54983) - http://www.bohemiancoding.com/sketch -->
    <title>ion-ios-clock-outline - Ionicons</title>
    <desc>Created with Sketch.</desc>
    <defs></defs>
    <g id="Page-1" stroke="none" stroke-width="1" fill="none" fill-rule="evenodd">
        <g id="Dynamic-group" transform="translate(-5.000000, -3.000000)" fill="#FFFFFF" stroke="#FFFFFF" stroke-width="0.5">
            <g id="4:4" transform="translate(4.000000, 4.000000)">
                <g id="Group" transform="translate(2.000000, 0.000000)">
                    <path d="M1.31971154,1.31971154 C2.19952363,0.439899447 3.25960918,0 4.5,0 C5.74039082,0 6.80047637,0.439899447 7.68028846,1.31971154 C8.56010055,2.19952363 9,3.25960918 9,4.5 C9,5.74039082 8.56010055,6.80047637 7.68028846,7.68028846 C6.80047637,8.56010055 5.74039082,9 4.5,9 C3.25960918,9 2.19952363,8.56010055 1.31971154,7.68028846 C0.439899447,6.80047637 0,5.74039082 0,4.5 C0,3.25960918 0.439899447,2.19952363 1.31971154,1.31971154 Z M1.57932692,7.42067308 C2.38702327,8.22836942 3.36057123,8.63221154 4.5,8.63221154 C5.63942877,8.63221154 6.61297673,8.22836942 7.42067308,7.42067308 C8.22836942,6.61297673 8.63221154,5.63942877 8.63221154,4.5 C8.63221154,3.36057123 8.22836942,2.38702327 7.42067308,1.57932692 C6.61297673,0.771630577 5.63942877,0.367788462 4.5,0.367788462 C3.36057123,0.367788462 2.38702327,0.771630577 1.57932692,1.57932692 C0.771630577,2.38702327 0.367788462,3.36057123 0.367788462,4.5 C0.367788462,5.63942877 0.771630577,6.61297673 1.57932692,7.42067308 Z M4.5,4.5 L4.5,1.73076923 L4.86778846,1.73076923 L4.86778846,4.86778846 L2.42307692,4.86778846 L2.42307692,4.5 L4.5,4.5 Z" id="ion-ios-clock-outline---Ionicons"></path>
                </g>
            </g>
        </g>
    </g>
</svg>